<?xml version="1.0" encoding="utf-8"?>

<!DOCTYPE svg PUBLIC "-//W3C//DTD SVG 1.1//EN" "http://www.w3.org/Graphics/SVG/1.1/DTD/svg11.dtd">
<!-- Uploaded to: SVG Repo, www.svgrepo.com, Generator: SVG Repo Mixer Tools -->
<svg height="800px" width="800px" version="1.1" id="_x32_" xmlns="http://www.w3.org/2000/svg" xmlns:xlink="http://www.w3.org/1999/xlink" 
	 viewBox="0 0 512 512"  xml:space="preserve">
<style type="text/css">
	.st0{fill:#000000;}
</style>
<g>
	<path class="st0" d="M326.972,188.391c-16.842,0-30.49,13.654-30.49,30.49c0,5.791,1.709,11.149,4.51,15.764l-0.894,2.806
		c0.67-0.374,1.288-0.73,1.946-1.097c4.312,6.14,10.807,10.61,18.38,12.273c-9.164,5.187-18.88,10.696-29.135,16.514l-7.652,24.028
		l-10.071-13.983c-43.966,24.922-94.164,53.373-138.893,78.729l4.246,113.722H174.3l1.683-88.281h15.172l1.683,88.281h35.381
		l6.324-169.402c12.872,11.754,30.91,28.616,37.853,36.952c11.294,13.549,31.62,11.288,38.391-4.516
		c4.168-9.743,16.908-52.026,26.085-83.088c11.952-4.128,20.59-15.349,20.59-28.701
		C357.462,202.045,343.814,188.391,326.972,188.391z"/>
	<path class="st0" d="M288.724,228.84c-10.952,6.212-22.522,12.766-34.46,19.538l-8.428-11.708c-0.17-1.058-0.591-2.13-1.354-3.208
		c-3.931-5.628-7.875-11.676-13.227-17.047l-1.828-2.524l-0.079,0.71c-0.96-0.874-1.985-1.709-3.036-2.531
		c15.323-12.424,25.138-31.39,25.138-52.656c0-24.547-13.095-45.984-32.646-57.877c0-28.695,28.044-22.535,28.044-22.535
		l-0.512,8.625l39.009-5.351l-21.72-37.911l-7.257,11.268c0,0-23.404-13.142-45.702,2.156
		c-13.529,9.282-18.906,22.391-20.694,34.164c-2.078-0.19-4.181-0.316-6.311-0.316c-1.945,0-3.865,0.131-5.772,0.29
		c-1.788-11.768-7.166-24.863-20.694-34.138c-22.298-15.298-45.688-2.156-45.688-2.156l-7.271-11.268l-21.72,37.911l39.009,5.351
		l-0.512-8.625c0,0,27.866-6.134,28.07,22.2c-19.853,11.82-33.198,33.435-33.198,58.212c0,21.602,10.136,40.797,25.874,53.209
		c-5.548,3.76-10.334,8.066-14.726,12.596c-0.723,0.466-1.459,0.986-2.182,1.564c0,0-47.161,45.228-73.66,108.153
		c-11.655,4.28-20.017,15.383-20.017,28.524c0,16.836,13.647,30.49,30.49,30.49c16.829,0,30.49-13.654,30.49-30.49
		c0-7.475-2.8-14.232-7.271-19.537c12.858-21.898,31.634-51.986,46.846-68.684l1.564,41.712
		c-13.917,7.889-27.413,15.534-40.1,22.726c3.984,5.259,6.666,11.543,7.612,18.381c59.783-33.889,137.67-78.039,197.532-111.973
		C293.8,241.304,290.434,235.407,288.724,228.84z"/>
	<path class="st0" d="M477.579,159.768l5.101,9.052c0,0-20.826,11.721-29.885,16.816c-9.046,5.094-24.507,3.057-28.583-4.181
		c-4.076-7.245,11.767-15.12,28.964-24.804c17.211-9.684,27.164-15.284,27.164-15.284l4.588,8.146l16.764-29.536l-33.948-1.006
		l4.588,8.145c0,0-9.966,5.607-27.176,15.291c-17.198,9.677-32.146,19.123-36.222,11.88c-4.076-7.238,2.195-21.504,11.254-26.598
		c9.059-5.095,29.885-16.816,29.885-16.816l5.088,9.053l18.105-29.26l-34.408,0.289l5.601,9.96c0,0-26.256,14.778-40.745,22.93
		c-28.071,15.79-9.914,45.517-23.666,53.262c-1.38,0.775-10.452,5.904-24.902,14.094c4.615,4.707,8.072,10.558,9.887,17.085
		c14.331-8.118,23.311-13.207,24.691-13.976c13.766-7.744,29.74,23.199,57.811,7.402c14.489-8.152,40.745-22.93,40.745-22.93
		l5.614,9.96L512,159.479L477.579,159.768z"/>
	<path class="st0" d="M25.046,378.31C9.322,387.218,0,392.503,0,392.503l4.839,8.606l4.838,8.598c0,0,10.202-5.785,27.255-15.448
		C31.726,390.071,27.597,384.588,25.046,378.31z"/>
</g>
</svg>